<svg width="18" height="18" viewBox="0 0 18 18" fill="none" xmlns="http://www.w3.org/2000/svg">
<path d="M5.12823 14.241H3.27063C2.93926 14.241 2.67063 14.5096 2.67063 14.841C2.67063 15.1724 2.93926 15.441 3.27063 15.441H5.12823C5.4596 15.441 5.72823 15.1724 5.72823 14.841C5.72823 14.5096 5.4596 14.241 5.12823 14.241Z" fill="white"/>
<path d="M6 8.4H2.4C1.0764 8.4 0 7.3236 0 6V2.4C0 1.0764 1.0764 0 2.4 0H6C7.3236 0 8.4 1.0764 8.4 2.4V6C8.4 7.3236 7.3236 8.4 6 8.4ZM2.4 1.2C1.7382 1.2 1.2 1.7382 1.2 2.4V6C1.2 6.6618 1.7382 7.2 2.4 7.2H6C6.6618 7.2 7.2 6.6618 7.2 6V2.4C7.2 1.7382 6.6618 1.2 6 1.2H2.4Z" fill="white"/>
<path d="M15.6 8.4H12C10.6764 8.4 9.6 7.3236 9.6 6V2.4C9.6 1.0764 10.6764 0 12 0H15.6C16.9236 0 18 1.0764 18 2.4V6C18 7.3236 16.9236 8.4 15.6 8.4ZM12 1.2C11.3382 1.2 10.8 1.7382 10.8 2.4V6C10.8 6.6618 11.3382 7.2 12 7.2H15.6C16.2618 7.2 16.8 6.6618 16.8 6V2.4C16.8 1.7382 16.2618 1.2 15.6 1.2H12Z" fill="white"/>
<path d="M6 18H2.4C1.0764 18 0 16.9236 0 15.6V12C0 10.6764 1.0764 9.6 2.4 9.6H6C7.3236 9.6 8.4 10.6764 8.4 12V15.6C8.4 16.9236 7.3236 18 6 18ZM2.4 10.8C1.7382 10.8 1.2 11.3382 1.2 12V15.6C1.2 16.2618 1.7382 16.8 2.4 16.8H6C6.6618 16.8 7.2 16.2618 7.2 15.6V12C7.2 11.3382 6.6618 10.8 6 10.8H2.4Z" fill="white"/>
<path d="M13.8 18C11.4846 18 9.6 16.1154 9.6 13.8C9.6 11.4846 11.4846 9.6 13.8 9.6C16.1154 9.6 18 11.4846 18 13.8C18 16.1154 16.1154 18 13.8 18ZM13.8 10.8C12.1458 10.8 10.8 12.1458 10.8 13.8C10.8 15.4542 12.1458 16.8 13.8 16.8C15.4542 16.8 16.8 15.4542 16.8 13.8C16.8 12.1458 15.4542 10.8 13.8 10.8Z" fill="white"/>
</svg>
